<svg width="30" height="30" viewBox="0 0 30 30" fill="none" xmlns="http://www.w3.org/2000/svg">
<g clip-path="url(#clip0_345_1709)">
<path d="M27.8928 13.0793C27.778 9.80691 26.4528 6.74691 24.1259 4.42004C21.687 1.98066 18.4456 0.637695 14.9994 0.637695C8.03891 0.637695 2.35156 6.17785 2.10641 13.0793C1.04422 13.5513 0.300781 14.6144 0.300781 15.85V19.2541C0.300781 20.9257 1.66062 22.286 3.33266 22.286C4.41453 22.286 5.29437 21.4061 5.29437 20.3243V14.7794C5.29437 13.7636 4.51531 12.9354 3.52484 12.8369C3.89047 6.82426 8.89578 2.04395 14.9994 2.04395C18.0706 2.04395 20.9586 3.24113 23.1322 5.41473C25.1281 7.41066 26.2962 10.0122 26.472 12.8374C25.4825 12.9368 24.7048 13.7646 24.7048 14.7794V20.3238C24.7048 21.348 25.4961 22.1814 26.4983 22.2682V23.6693C26.4983 25.2471 25.2144 26.5305 23.6366 26.5305H21.5173C21.4133 26.2333 21.2502 25.9586 21.0214 25.7308C20.6206 25.3282 20.0863 25.1064 19.5172 25.1064H17.3328C17.0192 25.1064 16.7183 25.173 16.4427 25.3014C15.6908 25.6469 15.2052 26.4054 15.2052 27.2336C15.2052 27.8027 15.4269 28.3371 15.8286 28.7369C16.2303 29.1396 16.7647 29.3613 17.3328 29.3613H19.5172C20.4228 29.3613 21.2211 28.7758 21.5187 27.9368H23.6366C25.9902 27.9368 27.9045 26.0224 27.9045 23.6693V22.0179C28.9602 21.543 29.698 20.4836 29.698 19.2532V15.8491C29.698 14.6144 28.9545 13.5513 27.8928 13.0793ZM3.88766 14.7794V20.3238C3.88766 20.6299 3.63875 20.8793 3.33219 20.8793C2.43594 20.8793 1.70656 20.1499 1.70656 19.2536V15.8496C1.70656 14.9529 2.43594 14.2239 3.33219 14.2239C3.63875 14.2239 3.88766 14.4733 3.88766 14.7794ZM20.2227 27.3846C20.1528 27.7155 19.8556 27.956 19.5167 27.956H17.3323C17.1402 27.956 16.9597 27.881 16.8219 27.7432C16.6859 27.6077 16.6109 27.4268 16.6109 27.2346C16.6109 26.9538 16.7755 26.6974 17.0333 26.5788C17.1252 26.5357 17.2259 26.5136 17.3323 26.5136H19.5167C19.7089 26.5136 19.8894 26.5882 20.0267 26.726C20.1627 26.8614 20.2377 27.0424 20.2377 27.2346C20.2381 27.2861 20.2325 27.3377 20.2227 27.3846ZM28.2917 19.2536C28.2917 20.1499 27.5623 20.8793 26.6661 20.8793C26.36 20.8793 26.1106 20.6304 26.1106 20.3238V14.7794C26.1106 14.4733 26.3595 14.2239 26.6661 14.2239C27.5623 14.2239 28.2917 14.9533 28.2917 15.8496V19.2536Z" fill="#FF5953"/>
<path d="M19.5521 19.4961C21.1951 19.4961 22.5315 18.1592 22.5315 16.5167V10.4459C22.5315 9.65187 22.2212 8.90374 21.6577 8.3403C21.0943 7.77686 20.3466 7.46655 19.5521 7.46655H10.4462C8.8032 7.46655 7.4668 8.80296 7.4668 10.4459V16.5167C7.4668 18.1597 8.8032 19.4961 10.4462 19.4961H10.502V21.0692C10.502 21.6692 10.8596 22.2017 11.4127 22.4262C11.5913 22.498 11.777 22.5336 11.9607 22.5336C12.3437 22.5336 12.7168 22.3817 12.9901 22.0991L15.6071 19.4961H19.5521ZM14.822 18.2942L11.9898 21.1109C11.9771 21.1241 11.9677 21.1339 11.941 21.1222C11.9087 21.1091 11.9087 21.088 11.9087 21.0692V18.793C11.9087 18.4048 11.5941 18.0898 11.2055 18.0898H10.4466C9.57898 18.0898 8.87352 17.3839 8.87352 16.5167V10.4459C8.87352 9.57827 9.57898 8.8728 10.4466 8.8728H19.5526C19.9716 8.8728 20.3659 9.03687 20.664 9.33452C20.9621 9.63265 21.1257 10.0273 21.1257 10.4459V16.5167C21.1257 17.3844 20.4198 18.0898 19.5526 18.0898H15.3179C15.1318 18.0898 14.9537 18.1634 14.822 18.2942Z" fill="#FF5953"/>
<path d="M11.5842 12.5562C11.0123 12.5562 10.5469 13.0221 10.5469 13.5935C10.5469 14.1649 11.0128 14.6308 11.5842 14.6308C12.1566 14.6308 12.6225 14.1649 12.6225 13.5935C12.6225 13.0221 12.157 12.5562 11.5842 12.5562Z" fill="#FF5953"/>
<path d="M14.9983 12.5562C14.4264 12.5562 13.9609 13.0221 13.9609 13.5935C13.9609 14.1649 14.4269 14.6308 14.9983 14.6308C15.5711 14.6308 16.0366 14.1649 16.0366 13.5935C16.0366 13.0221 15.5711 12.5562 14.9983 12.5562Z" fill="#FF5953"/>
<path d="M18.4143 12.5562C17.8424 12.5562 17.377 13.0221 17.377 13.5935C17.377 14.1649 17.8429 14.6308 18.4143 14.6308C18.9866 14.6308 19.4526 14.1649 19.4526 13.5935C19.4526 13.0221 18.9866 12.5562 18.4143 12.5562Z" fill="#FF5953"/>
</g>
<defs>
<clipPath id="clip0_345_1709">
<rect width="30" height="30" fill="white"/>
</clipPath>
</defs>
</svg>
