<svg width="30" height="30" viewBox="0 0 30 30" fill="none" xmlns="http://www.w3.org/2000/svg">
<g clip-path="url(#clip0_345_1708)">
<path d="M15 1.82031H17.6985L18.0548 4.66855C19.3968 4.94201 20.6461 5.47064 21.7504 6.20166L24.0182 4.43793L26.5035 6.92324L24.7398 9.19111C25.4708 10.2949 25.9994 11.5446 26.2729 12.8866L29.1211 13.2429V16.7572L26.2729 17.1135C25.9994 18.4555 25.4708 19.7048 24.7398 20.809L26.5035 23.0769L24.0182 25.5622L21.7504 23.7985C20.6466 24.5295 19.3968 25.0581 18.0548 25.3316L17.6985 28.1798H15V20.5703C15.306 20.6216 15.6204 20.6484 15.9414 20.6484C19.0589 20.6484 21.5899 18.1175 21.5899 15C21.5899 11.8825 19.0589 9.35154 15.9414 9.35154C15.6204 9.35154 15.306 9.37838 15 9.42965V1.82031Z" stroke="#FF5953" stroke-width="1.75781" stroke-miterlimit="10" stroke-linecap="round" stroke-linejoin="round"/>
<path d="M11.2344 0.878906C9.15621 0.878906 7.46871 2.56635 7.46871 4.64455C7.46871 4.68457 7.46918 4.72412 7.47059 4.76414C7.16883 4.68604 6.85301 4.64455 6.52729 4.64455C4.44914 4.64455 2.76164 6.33205 2.76164 8.4102C2.76164 9.55682 3.27516 10.5848 4.08527 11.2758C2.27174 11.546 0.878906 13.1115 0.878906 15C0.878906 16.8885 2.27174 18.454 4.08533 18.7242C3.27527 19.4152 2.7617 20.4432 2.7617 21.5899C2.7617 23.668 4.4492 25.3555 6.52734 25.3555C6.85307 25.3555 7.16889 25.3141 7.47064 25.2359C7.46924 25.2759 7.46877 25.3155 7.46877 25.3555C7.46877 27.4337 9.15627 29.1212 11.2344 29.1212C13.3126 29.1212 15 27.4337 15 25.3554V4.64455C15 2.56635 13.3125 0.878906 11.2344 0.878906Z" stroke="#FF5953" stroke-width="1.75781" stroke-miterlimit="10" stroke-linecap="round" stroke-linejoin="round"/>
<path d="M7.46875 4.64453C7.46875 6.72268 9.15625 8.41018 11.2344 8.41018" stroke="#FF5953" stroke-width="1.75781" stroke-miterlimit="10" stroke-linecap="round" stroke-linejoin="round"/>
<path d="M7.46875 25.3555C7.46875 23.2773 9.15625 21.5898 11.2344 21.5898" stroke="#FF5953" stroke-width="1.75781" stroke-miterlimit="10" stroke-linecap="round" stroke-linejoin="round"/>
<path d="M7.93945 18.7656C7.93945 16.6875 9.62695 15 11.7051 15" stroke="#FF5953" stroke-width="1.75781" stroke-miterlimit="10" stroke-linecap="round" stroke-linejoin="round"/>
<path d="M7.93945 11.2344C7.93945 13.3125 9.62695 15 11.7051 15" stroke="#FF5953" stroke-width="1.75781" stroke-miterlimit="10" stroke-linecap="round" stroke-linejoin="round"/>
<path d="M11.7051 15H15" stroke="#FF5953" stroke-width="1.75781" stroke-miterlimit="10" stroke-linecap="round" stroke-linejoin="round"/>
</g>
<defs>
<clipPath id="clip0_345_1708">
<rect width="30" height="30" fill="white"/>
</clipPath>
</defs>
</svg>
