<svg width="60" height="60" viewBox="0 0 60 60" fill="none" xmlns="http://www.w3.org/2000/svg">
<g id="business">
<g id="USER INTERFACE">
<g id="BRIEF CASE">
<path id="Vector" d="M19.402 11.346C15.8726 11.5225 12.6962 11.7784 11.108 11.9901C5.78923 12.726 1.2487 17.0865 0.59224 22.1759C0.59224 22.1759 0.361066 24.0411 0.274597 25.6435L0.015188 30.8616C-0.00775287 32.2046 -0.00598787 33.6516 0.0293058 35.2151C0.161657 40.9662 0.652239 45.1803 1.16223 48.2738C2.04457 53.3914 6.60981 57.9301 11.7503 58.8107C14.8632 59.3736 24.1825 60.046 29.9672 59.9966C35.7518 60.0548 45.0711 59.3736 48.184 58.8107C53.3227 57.9284 57.8897 53.3843 58.7721 48.2738C59.2821 45.1821 59.7727 40.968 59.905 35.2151C59.9403 33.6463 59.9421 32.194 59.9191 30.8475L59.658 25.6329C59.6261 24.475 59.5206 23.3203 59.3421 22.1759C58.6856 17.0865 54.1539 12.7242 48.8334 11.9901C47.2452 11.7784 44.0687 11.5225 40.5394 11.346L35.0283 11.1343C33.2195 11.0884 31.483 11.0654 29.976 11.0654C28.4689 11.0654 26.7325 11.0884 24.9237 11.1343L19.402 11.346Z" fill="url(#paint0_linear_228_1880)"/>
<path id="Vector_2" d="M40.5299 11.346C40.454 9.4048 40.3234 7.70012 40.1769 6.54778C39.955 4.93885 39.2284 3.44179 38.1017 2.27195C37.021 1.1222 35.5806 0.375234 34.0182 0.154332C32.6711 0.0342601 31.3187 -0.0158063 29.9665 0.00433378C28.6171 -0.0144386 27.2677 0.0368066 25.9236 0.157862C24.3607 0.37879 22.9198 1.12571 21.8384 2.27548C20.7127 3.44534 19.9863 4.94149 19.7631 6.54954C19.6096 7.70365 19.479 9.40127 19.4102 11.3495L24.9213 11.1377C24.9689 9.43833 25.0589 7.93306 25.1666 6.99954C25.2045 6.67523 25.3484 6.3725 25.576 6.13837C25.7994 5.90697 26.0951 5.7588 26.4142 5.71838C26.4142 5.71838 27.9742 5.63014 29.8694 5.63014C31.9447 5.63014 33.5312 5.71838 33.5312 5.71838C33.8512 5.75744 34.1479 5.9058 34.3711 6.13837C34.5987 6.3725 34.7427 6.67523 34.7805 6.99954C34.8882 7.93306 34.9782 9.43833 35.0258 11.1377L40.5299 11.346Z" fill="url(#paint1_linear_228_1880)"/>
<path id="Vector_3" d="M27.9612 33.2903C28.856 33.4529 29.7725 33.4559 30.6683 33.2991L59.7891 28.2397L59.6585 25.628C59.6266 24.4701 59.5211 23.3155 59.3426 22.171C58.6861 17.0816 54.1544 12.7194 48.8339 11.9852C47.2457 11.7735 44.0693 11.5176 40.5399 11.3411L35.0288 11.1294C33.22 11.0835 31.4835 11.0605 29.9765 11.0605C28.4695 11.0605 26.733 11.0835 24.9242 11.1294L19.4131 11.3411C15.8837 11.5176 12.7073 11.7735 11.1191 11.9852C5.78975 12.7264 1.24922 17.0869 0.592761 22.1763C0.592761 22.1763 0.361587 24.0416 0.275117 25.6439L0.144531 28.2909L27.9612 33.2903Z" fill="url(#paint2_linear_228_1880)"/>
</g>
</g>
</g>
<defs>
<linearGradient id="paint0_linear_228_1880" x1="50.6415" y1="52.41" x2="17.5698" y2="11.9009" gradientUnits="userSpaceOnUse">
<stop stop-color="#FF5953"/>
<stop offset="0.54" stop-color="#FF807B"/>
<stop offset="1" stop-color="#FF9D99"/>
</linearGradient>
<linearGradient id="paint1_linear_228_1880" x1="37.2553" y1="9.5891" x2="30.7269" y2="-2.56034" gradientUnits="userSpaceOnUse">
<stop stop-color="#FF5953"/>
<stop offset="0.54" stop-color="#FF807B"/>
<stop offset="1" stop-color="#FF9D99"/>
</linearGradient>
<linearGradient id="paint2_linear_228_1880" x1="54.7311" y1="29.9672" x2="46.143" y2="3.25478" gradientUnits="userSpaceOnUse">
<stop stop-color="#E20649"/>
<stop offset="0.54" stop-color="#F3316C"/>
<stop offset="1" stop-color="#FF8C8B"/>
</linearGradient>
</defs>
</svg>
