<svg width="1728" height="430" viewBox="0 0 1728 430" fill="none" xmlns="http://www.w3.org/2000/svg">
<rect width="1728" height="430" fill="url(#paint0_linear_345_3187)"/>
<mask id="mask0_345_3187" style="mask-type:alpha" maskUnits="userSpaceOnUse" x="0" y="0" width="1728" height="430">
<rect width="1728" height="430" fill="url(#paint1_linear_345_3187)"/>
</mask>
<g mask="url(#mask0_345_3187)">
<g style="mix-blend-mode:plus-lighter" opacity="0.2">
<path opacity="0.02" d="M675.191 307.911C756.762 181.129 892.083 153.791 1051.2 155.187C1184.91 156.351 1329.93 184.081 1447.74 173.934C1574.49 162.747 1664.14 114.527 1687.01 -17.2622" stroke="#05678E" stroke-width="0.77193" stroke-miterlimit="10"/>
<path opacity="0.04" d="M675.387 312.488C767.377 186.274 893.472 154.359 1052.8 152.59C1188.02 151.089 1335.98 187.932 1453.7 177.037C1581.77 165.187 1663.02 112.259 1679.34 -17.656" stroke="#076990" stroke-width="0.77193" stroke-miterlimit="10"/>
<path opacity="0.07" d="M675.582 317.067C777.993 191.418 894.844 152.388 1054.44 149.993C1191.19 147.943 1342.06 191.649 1459.68 180.141C1589.05 167.484 1661.92 109.985 1671.69 -18.0583" stroke="#096C93" stroke-width="0.77193" stroke-miterlimit="10"/>
<path opacity="0.09" d="M675.777 321.643C788.609 196.578 896.24 151.649 1056.05 147.396C1194.33 143.716 1348.09 195.358 1465.64 183.245C1596.32 169.776 1660.8 107.714 1664.03 -18.4448" stroke="#0C6E95" stroke-width="0.77193" stroke-miterlimit="10"/>
<path opacity="0.11" d="M675.977 326.23C799.221 201.73 897.642 150.9 1057.68 144.802C1197.5 139.479 1354.14 199.062 1471.61 186.347C1603.6 172.063 1659.69 105.443 1656.38 -18.8389" stroke="#0E7097" stroke-width="0.77193" stroke-miterlimit="10"/>
<path opacity="0.13" d="M676.164 330.799C809.836 206.89 899.05 150.111 1059.31 142.204C1200.67 135.228 1360.19 202.755 1477.59 189.452C1610.89 174.345 1658.59 103.172 1648.72 -19.2334" stroke="#107299" stroke-width="0.77193" stroke-miterlimit="10"/>
<path opacity="0.15" d="M676.359 335.378C820.445 212.034 900.465 149.323 1060.93 139.597C1203.84 130.962 1366.25 206.443 1483.56 192.553C1618.16 176.619 1657.48 100.901 1641.06 -19.6277" stroke="#12749C" stroke-width="0.77193" stroke-miterlimit="10"/>
<path opacity="0.17" d="M676.551 339.954C831.066 217.197 901.883 148.497 1062.56 137.01C1207.03 126.682 1372.3 210.123 1489.53 195.658C1625.44 178.887 1656.37 98.6269 1633.41 -20.022" stroke="#14779E" stroke-width="0.77193" stroke-miterlimit="10"/>
<path opacity="0.2" d="M676.746 344.534C841.679 222.339 903.304 147.649 1064.2 134.413C1210.22 122.39 1378.37 213.798 1495.52 198.762C1632.74 181.151 1655.28 96.356 1625.77 -20.416" stroke="#1679A0" stroke-width="0.77193" stroke-miterlimit="10"/>
<path opacity="0.22" d="M676.941 349.099C852.294 227.491 904.746 146.807 1065.81 131.819C1213.39 118.084 1384.4 217.465 1501.47 201.864C1639.98 183.403 1654.15 94.0899 1618.09 -20.8105" stroke="#197BA2" stroke-width="0.77193" stroke-miterlimit="10"/>
<path opacity="0.24" d="M677.133 353.689C862.909 232.651 906.154 145.937 1067.43 129.222C1216.58 113.763 1390.45 221.127 1507.45 204.969C1647.29 185.653 1653.06 91.8137 1610.45 -21.2046" stroke="#1B7DA4" stroke-width="0.77193" stroke-miterlimit="10"/>
<path opacity="0.26" d="M677.328 358.265C873.525 237.792 907.583 145.049 1069.05 126.625C1219.76 109.428 1396.5 224.783 1513.41 208.07C1654.55 187.895 1651.93 89.5423 1602.78 -21.5991" stroke="#1D7FA7" stroke-width="0.77193" stroke-miterlimit="10"/>
<path opacity="0.28" d="M677.523 362.844C884.144 242.944 909.008 144.142 1070.68 124.027C1222.96 105.08 1402.56 228.445 1519.39 211.175C1661.84 190.146 1650.84 87.2711 1595.14 -21.9856" stroke="#1F82A9" stroke-width="0.77193" stroke-miterlimit="10"/>
<path opacity="0.3" d="M677.719 367.421C894.753 248.097 910.436 143.224 1072.31 121.43C1226.15 100.719 1408.61 232.075 1525.36 214.279C1669.12 192.364 1649.73 85.0001 1587.48 -22.3877" stroke="#2184AB" stroke-width="0.77193" stroke-miterlimit="10"/>
<path opacity="0.33" d="M677.91 371.998C905.358 253.249 911.861 142.289 1073.93 118.833C1229.34 96.3455 1414.65 235.713 1531.33 217.381C1676.4 194.591 1648.63 82.7292 1579.83 -22.7817" stroke="#2386AD" stroke-width="0.77193" stroke-miterlimit="10"/>
<path opacity="0.35" d="M678.105 376.576C915.987 258.411 913.286 141.339 1075.56 116.239C1232.53 91.9578 1420.7 239.346 1537.31 220.485C1683.67 196.809 1647.52 80.4575 1572.17 -23.1765" stroke="#2588AF" stroke-width="0.77193" stroke-miterlimit="10"/>
<path opacity="0.37" d="M678.289 381.153C926.597 263.553 914.706 140.386 1077.19 113.642C1235.72 87.5501 1426.75 242.974 1543.28 223.587C1690.94 199.023 1646.42 78.1843 1564.52 -23.5703" stroke="#288AB2" stroke-width="0.77193" stroke-miterlimit="10"/>
<path opacity="0.39" d="M678.492 385.732C937.211 268.705 916.125 139.397 1078.81 111.039C1238.9 83.1389 1432.79 246.59 1549.24 226.699C1698.21 201.238 1645.3 75.9207 1556.85 -23.957" stroke="#2A8DB4" stroke-width="0.77193" stroke-miterlimit="10"/>
<path opacity="0.41" d="M678.688 390.309C947.826 273.86 917.544 138.406 1080.44 108.448C1242.1 78.7179 1438.84 250.216 1555.22 229.796C1705.49 203.431 1644.2 73.6551 1549.21 -24.3589" stroke="#2C8FB6" stroke-width="0.77193" stroke-miterlimit="10"/>
<path opacity="0.43" d="M678.883 394.887C958.442 279.009 918.962 137.404 1082.06 105.85C1245.26 74.2803 1444.88 253.827 1561.19 232.898C1712.76 205.625 1643.09 71.3704 1541.56 -24.7537" stroke="#2E91B8" stroke-width="0.77193" stroke-miterlimit="10"/>
<path opacity="0.46" d="M679.074 399.464C969.057 284.172 920.364 136.39 1083.69 103.256C1248.43 69.8303 1450.92 257.436 1567.17 236.002C1720.03 207.815 1641.98 69.0995 1533.9 -25.1477" stroke="#3093BB" stroke-width="0.77193" stroke-miterlimit="10"/>
<path opacity="0.48" d="M679.281 404.038C979.668 289.313 921.768 135.365 1085.31 100.659C1251.6 65.3692 1456.96 261.04 1573.14 239.104C1727.3 209.999 1640.88 66.8281 1526.26 -25.5422" stroke="#3295BD" stroke-width="0.77193" stroke-miterlimit="10"/>
<path opacity="0.5" d="M679.465 408.62C990.285 294.463 923.168 134.34 1086.94 98.0645C1254.77 60.8982 1463 264.641 1579.11 242.211C1734.57 212.176 1639.77 64.5572 1518.59 -25.9363" stroke="#3598BF" stroke-width="0.77193" stroke-miterlimit="10"/>
<path opacity="0.52" d="M679.656 413.199C1000.9 299.615 924.556 133.288 1088.55 95.4648C1257.92 56.4111 1469.03 268.235 1585.07 245.313C1741.83 214.348 1638.66 62.2861 1510.93 -26.3306" stroke="#379AC1" stroke-width="0.77193" stroke-miterlimit="10"/>
<path opacity="0.54" d="M679.852 417.775C1011.53 304.767 925.951 132.237 1090.19 92.8676C1261.08 51.916 1475.08 271.817 1591.06 248.422C1749.08 216.521 1637.56 60.0228 1503.28 -26.717" stroke="#399CC3" stroke-width="0.77193" stroke-miterlimit="10"/>
<path opacity="0.57" d="M680.043 422.354C1022.12 309.933 927.33 131.162 1091.81 90.2706C1264.22 47.4238 1481.11 275.413 1597.02 251.519C1756.35 218.674 1636.44 57.7412 1495.62 -27.1191" stroke="#3B9EC6" stroke-width="0.77193" stroke-miterlimit="10"/>
<path opacity="0.59" d="M680.242 426.931C1032.74 315.071 928.712 130.086 1093.44 87.6759C1267.37 42.8944 1487.15 278.999 1603 254.621C1763.63 220.822 1635.36 55.4803 1487.97 -27.5137" stroke="#3DA0C8" stroke-width="0.77193" stroke-miterlimit="10"/>
<path opacity="0.61" d="M680.434 431.51C1043.36 320.224 930.084 129.006 1095.07 85.0788C1270.5 38.3679 1493.18 282.579 1608.97 257.725C1770.86 222.977 1634.24 53.1987 1480.31 -27.908" stroke="#3FA2CA" stroke-width="0.77193" stroke-miterlimit="10"/>
<path opacity="0.63" d="M680.625 436.086C1053.97 325.376 931.446 127.915 1096.69 82.4817C1273.63 33.8335 1499.2 286.156 1614.94 260.83C1778.11 225.122 1633.12 50.9275 1472.66 -28.3022" stroke="#41A5CC" stroke-width="0.77193" stroke-miterlimit="10"/>
<path opacity="0.65" d="M680.82 440.665C1064.58 330.525 932.808 126.806 1098.31 79.8846C1276.75 29.286 1505.23 289.729 1620.91 263.931C1785.36 227.259 1632.02 48.6459 1465.01 -28.6965" stroke="#44A7CF" stroke-width="0.77193" stroke-miterlimit="10"/>
<path opacity="0.67" d="M681.012 445.242C1075.2 335.693 934.166 125.712 1099.94 77.2981C1279.86 24.7253 1511.26 293.299 1626.89 267.036C1792.61 229.391 1630.91 46.3853 1457.35 -29.0908" stroke="#46A9D1" stroke-width="0.77193" stroke-miterlimit="10"/>
<path opacity="0.7" d="M681.211 449.821C1085.82 340.832 935.513 124.614 1101.57 74.6933C1282.97 20.1701 1517.29 296.866 1632.86 270.138C1799.86 231.518 1629.81 44.1144 1449.71 -29.4849" stroke="#48ABD3" stroke-width="0.77193" stroke-miterlimit="10"/>
<path opacity="0.72" d="M681.402 454.397C1096.43 345.984 936.851 123.483 1103.19 72.096C1286.07 15.596 1523.31 300.43 1638.83 273.242C1807.1 233.642 1628.7 41.843 1442.04 -29.8794" stroke="#4AADD5" stroke-width="0.77193" stroke-miterlimit="10"/>
<path opacity="0.74" d="M681.594 458.977C1107.04 351.137 938.186 122.361 1104.81 69.4992C1289.16 11.0172 1529.33 303.992 1644.8 276.347C1814.33 235.758 1627.59 39.5721 1434.39 -30.2734" stroke="#4CB0D7" stroke-width="0.77193" stroke-miterlimit="10"/>
<path opacity="0.76" d="M681.789 463.553C1117.65 356.286 939.516 121.231 1106.44 66.9018C1292.23 6.42738 1535.35 307.551 1650.78 279.448C1821.57 237.866 1626.48 37.2981 1426.73 -30.668" stroke="#4EB2DA" stroke-width="0.77193" stroke-miterlimit="10"/>
<path opacity="0.78" d="M681.984 468.132C1128.28 361.438 940.838 120.1 1108.07 64.305C1295.32 1.83277 1541.37 311.105 1656.75 282.553C1828.8 239.969 1625.38 35.0272 1419.08 -31.062" stroke="#50B4DC" stroke-width="0.77193" stroke-miterlimit="10"/>
<path opacity="0.8" d="M682.18 472.708C1138.89 366.59 942.154 118.957 1109.69 61.7103C1298.39 -2.77284 1547.38 314.664 1662.72 285.654C1836.02 242.072 1624.27 32.7558 1411.42 -31.4565" stroke="#53B6DE" stroke-width="0.77193" stroke-miterlimit="10"/>
<path opacity="0.83" d="M682.371 477.285C1149.5 371.743 943.463 117.814 1111.31 59.1134C1301.45 -7.39111 1553.4 318.21 1668.69 288.759C1843.25 244.167 1623.16 30.4849 1403.77 -31.8506" stroke="#55B8E0" stroke-width="0.77193" stroke-miterlimit="10"/>
<path opacity="0.85" d="M682.566 481.864C1160.11 376.895 944.769 116.667 1112.94 56.5161C1304.5 -11.9994 1559.41 321.746 1674.66 291.863C1850.48 246.256 1622.05 28.2109 1396.11 -32.2478" stroke="#57BBE2" stroke-width="0.77193" stroke-miterlimit="10"/>
<path opacity="0.87" d="M682.762 486.441C1170.73 382.047 946.069 115.514 1114.57 53.9193C1307.55 -16.6255 1565.42 325.303 1680.64 294.965C1857.7 248.341 1620.95 25.9427 1388.46 -32.6392" stroke="#59BDE5" stroke-width="0.77193" stroke-miterlimit="10"/>
<path opacity="0.89" d="M682.957 491.019C1181.35 387.199 947.355 114.362 1116.19 51.3219C1310.58 -21.2548 1571.42 328.846 1686.61 298.07C1864.92 250.42 1619.83 23.6713 1380.81 -33.0337" stroke="#5BBFE7" stroke-width="0.77193" stroke-miterlimit="10"/>
<path opacity="0.91" d="M683.148 495.596C1191.96 392.351 948.641 113.2 1117.82 48.7275C1313.62 -25.8943 1577.43 332.386 1692.58 301.171C1872.14 252.497 1618.74 21.4002 1373.15 -33.428" stroke="#5DC1E9" stroke-width="0.77193" stroke-miterlimit="10"/>
<path opacity="0.93" d="M683.344 500.175C1202.57 397.503 949.92 112.036 1119.44 46.1303C1316.64 -30.5365 1583.45 335.927 1698.55 304.276C1879.35 254.566 1617.63 19.129 1365.49 -33.825" stroke="#60C3EB" stroke-width="0.77193" stroke-miterlimit="10"/>
<path opacity="0.96" d="M683.539 504.752C1213.19 402.655 951.19 110.871 1121.07 43.5333C1319.66 -35.1839 1589.38 339.31 1704.52 307.38C1886.45 256.385 1616.52 16.8552 1357.84 -34.2192" stroke="#62C6EE" stroke-width="0.77193" stroke-miterlimit="10"/>
<path opacity="0.98" d="M683.73 509.33C1223.8 407.807 952.35 109.53 1122.69 40.9359C1322.53 -40.0419 1595.41 342.919 1710.49 310.482C1893.7 258.566 1615.41 14.5838 1350.19 -34.6138" stroke="#64C8F0" stroke-width="0.77193" stroke-miterlimit="10"/>
<path d="M683.926 513.915C1234.42 412.975 953.716 108.539 1124.32 38.3469C1325.65 -44.4894 1601.45 346.539 1716.47 313.594C1900.96 260.759 1614.32 12.3207 1342.53 -35" stroke="#66CAF2" stroke-width="0.77193" stroke-miterlimit="10"/>
</g>
<g style="mix-blend-mode:plus-lighter" opacity="0.2">
<path opacity="0.02" d="M1114.81 284.911C1033.24 158.129 897.917 130.791 738.803 132.187C605.088 133.351 460.073 161.081 342.26 150.934C215.511 139.747 125.861 91.5272 102.99 -40.2622" stroke="#05678E" stroke-width="0.77193" stroke-miterlimit="10"/>
<path opacity="0.04" d="M1114.61 289.488C1022.62 163.274 896.528 131.359 737.196 129.59C601.983 128.089 454.02 164.932 336.303 154.037C208.234 142.187 126.985 89.2592 110.66 -40.656" stroke="#076990" stroke-width="0.77193" stroke-miterlimit="10"/>
<path opacity="0.07" d="M1114.42 294.067C1012.01 168.418 895.156 129.388 735.559 126.993C598.813 124.943 447.943 168.649 330.322 157.141C200.948 144.484 128.082 86.9852 118.306 -41.0583" stroke="#096C93" stroke-width="0.77193" stroke-miterlimit="10"/>
<path opacity="0.09" d="M1114.22 298.643C1001.39 173.578 893.76 128.649 733.945 124.396C595.665 120.716 441.913 172.358 324.358 160.245C193.678 146.776 129.199 84.714 125.969 -41.4448" stroke="#0C6E95" stroke-width="0.77193" stroke-miterlimit="10"/>
<path opacity="0.11" d="M1114.02 303.23C990.779 178.73 892.358 127.9 732.318 121.802C592.504 116.479 435.859 176.062 318.386 163.347C186.401 149.063 130.306 82.4431 133.625 -41.8389" stroke="#0E7097" stroke-width="0.77193" stroke-miterlimit="10"/>
<path opacity="0.13" d="M1113.84 307.799C980.164 183.89 890.95 127.111 730.692 119.204C589.334 112.228 429.807 179.755 312.414 166.452C179.109 151.345 131.411 80.1718 141.279 -42.2334" stroke="#107299" stroke-width="0.77193" stroke-miterlimit="10"/>
<path opacity="0.15" d="M1113.64 312.378C969.555 189.034 889.535 126.323 729.069 116.597C586.16 107.962 423.747 183.443 306.443 169.553C171.842 153.619 132.518 77.9006 148.935 -42.6277" stroke="#12749C" stroke-width="0.77193" stroke-miterlimit="10"/>
<path opacity="0.17" d="M1113.45 316.954C958.934 194.197 888.117 125.497 727.443 114.01C582.974 103.682 417.704 187.123 300.469 172.658C164.563 155.887 133.626 75.6269 156.589 -43.022" stroke="#14779E" stroke-width="0.77193" stroke-miterlimit="10"/>
<path opacity="0.2" d="M1113.25 321.534C948.321 199.339 886.696 124.649 725.799 111.413C579.78 99.39 411.634 190.798 294.482 175.762C157.263 158.151 134.716 73.356 164.228 -43.416" stroke="#1679A0" stroke-width="0.77193" stroke-miterlimit="10"/>
<path opacity="0.22" d="M1113.06 326.099C937.706 204.491 885.254 123.807 724.192 108.819C576.609 95.0841 405.597 194.465 288.534 178.864C150.016 160.403 135.85 71.0899 171.908 -43.8105" stroke="#197BA2" stroke-width="0.77193" stroke-miterlimit="10"/>
<path opacity="0.24" d="M1112.87 330.689C927.091 209.651 883.846 122.937 722.566 106.222C573.423 90.7628 399.548 198.127 282.548 181.969C142.707 162.653 136.942 68.8137 179.545 -44.2046" stroke="#1B7DA4" stroke-width="0.77193" stroke-miterlimit="10"/>
<path opacity="0.26" d="M1112.67 335.265C916.475 214.792 882.417 122.049 720.949 103.625C570.242 86.428 393.504 201.783 276.59 185.07C135.45 164.895 138.072 66.5423 187.218 -44.5991" stroke="#1D7FA7" stroke-width="0.77193" stroke-miterlimit="10"/>
<path opacity="0.28" d="M1112.48 339.844C905.856 219.944 880.992 121.142 719.316 101.027C567.039 82.0801 387.444 205.445 270.609 188.175C128.16 167.146 139.159 64.2711 194.861 -44.9856" stroke="#1F82A9" stroke-width="0.77193" stroke-miterlimit="10"/>
<path opacity="0.3" d="M1112.28 344.421C895.247 225.097 879.564 120.224 717.689 98.4304C563.848 77.7193 381.394 209.075 264.639 191.279C120.884 169.364 140.267 62.0001 202.517 -45.3877" stroke="#2184AB" stroke-width="0.77193" stroke-miterlimit="10"/>
<path opacity="0.33" d="M1112.09 348.998C884.642 230.249 878.139 119.289 716.066 95.8335C560.658 73.3455 375.348 212.713 258.665 194.381C113.604 171.591 141.374 59.7292 210.171 -45.7817" stroke="#2386AD" stroke-width="0.77193" stroke-miterlimit="10"/>
<path opacity="0.35" d="M1111.89 353.576C874.013 235.411 876.714 118.339 714.44 93.2386C557.468 68.9578 369.301 216.346 252.694 197.485C106.328 173.809 142.482 57.4575 217.827 -46.1765" stroke="#2588AF" stroke-width="0.77193" stroke-miterlimit="10"/>
<path opacity="0.37" d="M1111.71 358.153C863.403 240.553 875.294 117.386 712.815 90.642C554.282 64.5501 363.249 219.974 246.722 200.587C99.0564 176.023 143.577 55.1843 225.482 -46.5703" stroke="#288AB2" stroke-width="0.77193" stroke-miterlimit="10"/>
<path opacity="0.39" d="M1111.51 362.732C852.789 245.705 873.875 116.397 711.19 88.0393C551.097 60.1389 357.208 223.59 240.757 203.699C91.7886 178.238 144.703 52.9207 233.153 -46.957" stroke="#2A8DB4" stroke-width="0.77193" stroke-miterlimit="10"/>
<path opacity="0.41" d="M1111.31 367.309C842.174 250.86 872.456 115.406 709.563 85.4478C547.903 55.7179 351.161 227.216 234.776 206.796C84.5085 180.431 145.804 50.6551 240.79 -47.3589" stroke="#2C8FB6" stroke-width="0.77193" stroke-miterlimit="10"/>
<path opacity="0.43" d="M1111.12 371.887C831.558 256.009 871.038 114.404 707.936 82.8502C544.743 51.2803 345.118 230.827 228.805 209.898C77.2353 182.625 146.908 48.3704 248.443 -47.7537" stroke="#2E91B8" stroke-width="0.77193" stroke-miterlimit="10"/>
<path opacity="0.46" d="M1110.93 376.464C820.943 261.172 869.636 113.39 706.314 80.256C541.566 46.8303 339.078 234.436 222.832 213.002C69.9659 184.815 148.015 46.0995 256.099 -48.1477" stroke="#3093BB" stroke-width="0.77193" stroke-miterlimit="10"/>
<path opacity="0.48" d="M1110.72 381.038C810.332 266.313 868.232 112.365 704.688 77.6587C538.397 42.3692 333.04 238.04 216.863 216.104C62.7008 186.999 149.124 43.8281 263.741 -48.5422" stroke="#3295BD" stroke-width="0.77193" stroke-miterlimit="10"/>
<path opacity="0.5" d="M1110.54 385.62C799.715 271.463 866.832 111.34 703.06 75.0645C535.231 37.8982 326.998 241.641 210.887 219.211C55.4324 189.176 150.23 41.5572 271.409 -48.9363" stroke="#3598BF" stroke-width="0.77193" stroke-miterlimit="10"/>
<path opacity="0.52" d="M1110.34 390.199C789.104 276.615 865.444 110.288 701.447 72.4648C532.085 33.4111 320.971 245.235 204.927 222.313C48.173 191.348 151.341 39.2861 279.065 -49.3306" stroke="#379AC1" stroke-width="0.77193" stroke-miterlimit="10"/>
<path opacity="0.54" d="M1110.15 394.775C778.472 281.767 864.049 109.237 699.81 69.8676C528.92 28.916 314.925 248.817 198.943 225.422C40.9196 193.521 152.445 37.0228 286.718 -49.717" stroke="#399CC3" stroke-width="0.77193" stroke-miterlimit="10"/>
<path opacity="0.57" d="M1109.96 399.354C767.876 286.933 862.67 108.162 698.187 67.2706C525.777 24.4238 308.892 252.413 192.976 228.519C33.6502 195.674 153.556 34.7412 294.375 -50.1191" stroke="#3B9EC6" stroke-width="0.77193" stroke-miterlimit="10"/>
<path opacity="0.59" d="M1109.76 403.931C757.257 292.071 861.288 107.086 696.56 64.6759C522.632 19.8944 302.854 255.999 186.998 231.621C26.3731 197.822 154.643 32.4803 302.028 -50.5137" stroke="#3DA0C8" stroke-width="0.77193" stroke-miterlimit="10"/>
<path opacity="0.61" d="M1109.57 408.51C746.642 297.224 859.916 106.006 694.934 62.0788C519.498 15.3679 296.824 259.579 181.028 234.725C19.1367 199.977 155.764 30.1987 309.691 -50.908" stroke="#3FA2CA" stroke-width="0.77193" stroke-miterlimit="10"/>
<path opacity="0.63" d="M1109.38 413.086C736.03 302.376 858.554 104.915 693.314 59.4817C516.371 10.8335 290.798 263.156 175.058 237.83C11.8871 202.122 156.875 27.9275 317.338 -51.3022" stroke="#41A5CC" stroke-width="0.77193" stroke-miterlimit="10"/>
<path opacity="0.65" d="M1109.18 417.665C725.418 307.525 857.192 103.806 691.688 56.8846C513.25 6.28597 284.771 266.729 169.087 240.931C4.63689 204.259 157.982 25.6459 324.994 -51.6965" stroke="#44A7CF" stroke-width="0.77193" stroke-miterlimit="10"/>
<path opacity="0.67" d="M1108.99 422.242C714.803 312.693 855.834 102.712 690.061 54.2981C510.136 1.72529 278.745 270.299 163.113 244.036C-2.60928 206.391 159.09 23.3853 332.648 -52.0908" stroke="#46A9D1" stroke-width="0.77193" stroke-miterlimit="10"/>
<path opacity="0.7" d="M1108.79 426.821C704.183 317.832 854.487 101.614 688.434 51.6933C507.028 -2.82989 272.714 273.866 157.139 247.138C-9.85672 208.518 160.193 21.1144 340.287 -52.4849" stroke="#48ABD3" stroke-width="0.77193" stroke-miterlimit="10"/>
<path opacity="0.72" d="M1108.6 431.397C693.572 322.984 853.149 100.483 686.811 49.096C503.931 -7.40395 266.694 277.43 151.169 250.242C-17.103 210.642 161.305 18.843 347.957 -52.8794" stroke="#4AADD5" stroke-width="0.77193" stroke-miterlimit="10"/>
<path opacity="0.74" d="M1108.41 435.977C682.957 328.137 851.814 99.3611 685.185 46.4992C500.84 -11.9828 260.674 280.992 145.198 253.347C-24.3328 212.758 162.412 16.5721 355.614 -53.2734" stroke="#4CB0D7" stroke-width="0.77193" stroke-miterlimit="10"/>
<path opacity="0.76" d="M1108.21 440.553C672.354 333.286 850.484 98.2305 683.562 43.9018C497.768 -16.5726 254.654 284.551 139.224 256.448C-31.5696 214.866 163.516 14.2981 363.267 -53.668" stroke="#4EB2DA" stroke-width="0.77193" stroke-miterlimit="10"/>
<path opacity="0.78" d="M1108.02 445.132C661.716 338.438 849.162 97.1005 681.935 41.305C494.677 -21.1672 248.634 288.105 133.254 259.553C-38.8033 216.969 164.623 12.0272 370.923 -54.062" stroke="#50B4DC" stroke-width="0.77193" stroke-miterlimit="10"/>
<path opacity="0.8" d="M1107.82 449.708C651.113 343.59 847.846 95.9568 680.308 38.7103C491.609 -25.7728 242.62 291.664 127.28 262.654C-46.0237 219.072 165.731 9.75583 378.576 -54.4565" stroke="#53B6DE" stroke-width="0.77193" stroke-miterlimit="10"/>
<path opacity="0.83" d="M1107.63 454.285C640.502 348.743 846.537 94.8135 678.685 36.1134C488.548 -30.3911 236.604 295.21 121.306 265.759C-53.2467 221.167 166.835 7.48493 386.226 -54.8506" stroke="#55B8E0" stroke-width="0.77193" stroke-miterlimit="10"/>
<path opacity="0.85" d="M1107.43 458.864C629.886 353.895 845.231 93.6672 677.058 33.5161C485.496 -34.9994 230.593 298.746 115.335 268.863C-60.4838 223.256 167.946 5.21088 393.886 -55.2478" stroke="#57BBE2" stroke-width="0.77193" stroke-miterlimit="10"/>
<path opacity="0.87" d="M1107.24 463.441C619.27 359.047 843.931 92.5135 675.435 30.9193C482.448 -39.6255 224.579 302.303 109.365 271.965C-67.704 225.341 169.053 2.94267 401.539 -55.6392" stroke="#59BDE5" stroke-width="0.77193" stroke-miterlimit="10"/>
<path opacity="0.89" d="M1107.04 468.019C608.655 364.199 842.645 91.3619 673.808 28.3219C479.42 -44.2548 218.582 305.846 103.39 275.07C-74.9212 227.42 170.17 0.671291 409.189 -56.0337" stroke="#5BBFE7" stroke-width="0.77193" stroke-miterlimit="10"/>
<path opacity="0.91" d="M1106.85 472.596C598.04 369.351 841.359 90.2001 672.182 25.7275C476.382 -48.8943 212.566 309.386 97.4203 278.171C-82.1377 229.497 171.265 -1.59984 416.849 -56.428" stroke="#5DC1E9" stroke-width="0.77193" stroke-miterlimit="10"/>
<path opacity="0.93" d="M1106.66 477.175C587.428 374.503 840.08 89.0356 670.558 23.1303C473.36 -53.5365 206.549 312.927 91.4464 281.276C-89.3481 231.566 172.372 -3.87103 424.505 -56.825" stroke="#60C3EB" stroke-width="0.77193" stroke-miterlimit="10"/>
<path opacity="0.96" d="M1106.46 481.752C576.812 379.655 838.81 87.8711 668.932 20.5333C470.345 -58.1839 200.621 316.31 85.4755 284.38C-96.4495 233.385 173.479 -6.1448 432.158 -57.2192" stroke="#62C6EE" stroke-width="0.77193" stroke-miterlimit="10"/>
<path opacity="0.98" d="M1106.27 486.33C566.197 384.807 837.65 86.5303 667.305 17.9359C467.469 -63.0419 194.588 319.919 79.5119 287.482C-103.703 235.566 174.587 -8.41617 439.815 -57.6138" stroke="#64C8F0" stroke-width="0.77193" stroke-miterlimit="10"/>
<path d="M1106.07 490.915C555.581 389.975 836.284 85.5394 665.682 15.3469C464.351 -67.4894 188.554 323.539 73.5312 290.594C-110.959 237.759 175.684 -10.6793 447.468 -58" stroke="#66CAF2" stroke-width="0.77193" stroke-miterlimit="10"/>
</g>
</g>
<defs>
<linearGradient id="paint0_linear_345_3187" x1="-1069.5" y1="-263.375" x2="2766.51" y2="489.315" gradientUnits="userSpaceOnUse">
<stop stop-color="#FF5953"/>
<stop offset="1" stop-color="#E20649"/>
</linearGradient>
<linearGradient id="paint1_linear_345_3187" x1="-1069.5" y1="-263.375" x2="2766.51" y2="489.315" gradientUnits="userSpaceOnUse">
<stop stop-color="#FF5953"/>
<stop offset="1" stop-color="#E20649"/>
</linearGradient>
</defs>
</svg>
