<svg width="60" height="60" viewBox="0 0 60 60" fill="none" xmlns="http://www.w3.org/2000/svg">
<g id="development icon">
<g id="Group 11279">
<path id="Vector" d="M58.7806 14.1349C57.6865 7.94094 52.059 2.31169 45.8633 1.21938C42.1046 0.592924 36.9871 0 29.9991 0C23.0111 0 17.8953 0.592924 14.1349 1.21938C7.94094 2.31346 2.31169 7.94094 1.21938 14.1349C0.592924 17.8953 0 23.0128 0 29.9991C0 36.9853 0.592924 42.1046 1.21938 45.8633C2.31346 52.059 7.94094 57.6865 14.1349 58.7806C17.8953 59.407 23.0128 59.9929 29.9991 59.9999C36.9853 60.007 42.1046 59.407 45.8633 58.7806C52.059 57.6865 57.6865 52.059 58.7806 45.8633C59.407 42.1046 59.9929 36.9871 59.9999 29.9991C60.007 23.0111 59.407 17.8953 58.7806 14.1349Z" fill="url(#paint0_linear_228_1828)"/>
<path id="Vector_2" d="M1.21806 14.1349C0.99395 15.4742 0.776897 16.9865 0.589844 18.693C9.9425 17.5742 19.7222 17.0201 30.4019 17.0077C40.7727 17.0201 50.293 17.5371 59.3969 18.5959C59.2116 16.9301 58.9981 15.4495 58.7792 14.1349C57.6852 7.94094 52.0577 2.31169 45.862 1.21938C42.1033 0.592924 36.9858 0 29.9978 0C23.0097 0 17.894 0.592924 14.1336 1.21938C7.93962 2.31346 2.31215 7.94094 1.21806 14.1349Z" fill="url(#paint1_linear_228_1828)"/>
<path id="Vector_3" d="M21.1615 44.8219C21.3683 45.0287 21.5324 45.2743 21.6443 45.5445C21.7562 45.8147 21.8138 46.1044 21.8138 46.3968C21.8138 46.6893 21.7562 46.979 21.6443 47.2492C21.5324 47.5194 21.3683 47.765 21.1615 47.9718C20.9546 48.1786 20.7091 48.3427 20.4389 48.4546C20.1687 48.5666 19.879 48.6242 19.5865 48.6242C19.294 48.6242 19.0044 48.5666 18.7342 48.4546C18.4639 48.3427 18.2184 48.1786 18.0116 47.9718L9.86417 39.8226C9.6571 39.616 9.49281 39.3705 9.38072 39.1002C9.26863 38.83 9.21094 38.5403 9.21094 38.2477C9.21094 37.9551 9.26863 37.6654 9.38072 37.3952C9.49281 37.1249 9.6571 36.8794 9.86417 36.6727L18.0116 28.5253C18.4313 28.1188 18.9941 27.8936 19.5784 27.8982C20.1627 27.9028 20.7218 28.1369 21.1351 28.5499C21.5484 28.963 21.7828 29.522 21.7878 30.1063C21.7927 30.6906 21.5678 31.2535 21.1615 31.6735L14.5864 38.2486L21.1615 44.8219ZM35.9846 26.0513L28.2571 51.727C28.1834 52.0188 28.0514 52.2927 27.8689 52.532C27.6864 52.7714 27.4572 52.9712 27.1953 53.1195C26.9334 53.2678 26.6442 53.3615 26.345 53.3949C26.0459 53.4283 25.7431 53.4007 25.4549 53.3138C25.1668 53.2269 24.8992 53.0825 24.6684 52.8893C24.4376 52.6961 24.2484 52.4581 24.1122 52.1897C23.9759 51.9213 23.8955 51.6281 23.8758 51.3278C23.856 51.0275 23.8973 50.7262 23.9973 50.4423L31.7247 24.7666C31.8089 24.4861 31.9476 24.2249 32.1328 23.998C32.3179 23.7711 32.546 23.5828 32.8039 23.444C33.0618 23.3053 33.3446 23.2186 33.636 23.1891C33.9274 23.1596 34.2217 23.1877 34.5022 23.272C34.7828 23.3562 35.0439 23.4949 35.2709 23.68C35.4978 23.8652 35.686 24.0933 35.8248 24.3512C35.9636 24.6091 36.0503 24.8918 36.0798 25.1832C36.1093 25.4746 36.0811 25.769 35.9969 26.0495L35.9846 26.0513ZM50.1282 39.8156L41.9808 47.9647C41.5568 48.3446 41.0034 48.5477 40.4344 48.5323C39.8653 48.5168 39.3237 48.284 38.921 47.8817C38.5182 47.4794 38.2848 46.9381 38.2687 46.369C38.2526 45.7999 38.4551 45.2463 38.8345 44.8219L45.4096 38.2486L38.8345 31.6735C38.6222 31.4679 38.4529 31.2221 38.3366 30.9505C38.2203 30.6788 38.1591 30.3868 38.1568 30.0913C38.1545 29.7958 38.211 29.5027 38.323 29.2293C38.4351 28.9559 38.6004 28.7074 38.8095 28.4986C39.0185 28.2897 39.267 28.1244 39.5405 28.0125C39.814 27.9007 40.107 27.8443 40.4025 27.8468C40.698 27.8493 40.9901 27.9106 41.2617 28.0271C41.5332 28.1436 41.7789 28.3129 41.9844 28.5253L50.1318 36.6727C50.549 37.0903 50.7834 37.6565 50.7834 38.2468C50.7834 38.8371 50.549 39.4033 50.1318 39.8209L50.1282 39.8156Z" fill="url(#paint2_linear_228_1828)"/>
<path id="Vector_4" d="M25.6523 7.20523C32.6815 7.13112 39.7084 7.28935 46.7329 7.67992C47.0262 7.69434 47.3139 7.76664 47.5792 7.89268C47.8445 8.01872 48.0822 8.19599 48.2788 8.4143C48.4753 8.63261 48.6266 8.88763 48.7242 9.16469C48.8217 9.44175 48.8635 9.73537 48.8471 10.0286C48.8307 10.3219 48.7564 10.609 48.6286 10.8735C48.5007 11.1379 48.3218 11.3745 48.1022 11.5695C47.8826 11.7645 47.6265 11.9142 47.3488 12.0098C47.0711 12.1055 46.7772 12.1453 46.484 12.1268C39.5607 11.741 32.6327 11.5851 25.7 11.6592C25.4075 11.6623 25.1173 11.6078 24.8459 11.4988C24.5745 11.3898 24.3273 11.2284 24.1183 11.0238C23.9093 10.8192 23.7426 10.5755 23.6278 10.3065C23.513 10.0375 23.4523 9.7485 23.4491 9.45605C23.446 9.16359 23.5005 8.87339 23.6096 8.602C23.7186 8.33061 23.88 8.08335 24.0846 7.87435C24.2892 7.66534 24.5329 7.49867 24.8019 7.38387C25.0709 7.26906 25.3599 7.20836 25.6523 7.20523ZM17.8878 7.39934C18.3255 7.38576 18.7573 7.502 19.129 7.73342C19.5007 7.96483 19.7956 8.30107 19.9765 8.69977C20.1575 9.09847 20.2164 9.5418 20.1458 9.97392C20.0752 10.406 19.8784 10.8076 19.58 11.128C19.2816 11.4485 18.8951 11.6734 18.4691 11.7746C18.0431 11.8758 17.5967 11.8486 17.1862 11.6965C16.7756 11.5444 16.4192 11.2742 16.1619 10.92C15.9046 10.5657 15.7579 10.1432 15.7403 9.70574C15.7292 9.41241 15.7763 9.11979 15.8789 8.84476C15.9815 8.56973 16.1375 8.31773 16.338 8.10331C16.5385 7.88889 16.7794 7.71629 17.0469 7.59547C17.3145 7.47464 17.6033 7.40799 17.8967 7.39934H17.8878ZM11.3586 7.69757C11.7957 7.67675 12.2293 7.78569 12.6046 8.01069C12.9799 8.23568 13.2803 8.56667 13.468 8.962C13.6557 9.35733 13.7222 9.79934 13.6592 10.2324C13.5963 10.6655 13.4066 11.0702 13.1141 11.3957C12.8217 11.7212 12.4394 11.953 12.0156 12.0618C11.5917 12.1705 11.1451 12.1515 10.732 12.0071C10.3189 11.8626 9.95779 11.5992 9.69406 11.25C9.43033 10.9008 9.27578 10.4814 9.24987 10.0446C9.23274 9.75137 9.27396 9.4577 9.37113 9.18056C9.4683 8.90342 9.6195 8.64831 9.81596 8.43001C10.0124 8.21172 10.2503 8.03458 10.5157 7.90885C10.7811 7.78312 11.0688 7.71131 11.3622 7.69757H11.3586Z" fill="url(#paint3_linear_228_1828)"/>
</g>
</g>
<defs>
<linearGradient id="paint0_linear_228_1828" x1="50.697" y1="50.6936" x2="9.30985" y2="9.30291" gradientUnits="userSpaceOnUse">
<stop stop-color="#FF5953"/>
<stop offset="0.54" stop-color="#FF807B"/>
<stop offset="1" stop-color="#FF9D99"/>
</linearGradient>
<linearGradient id="paint1_linear_228_1828" x1="54.41" y1="15.8103" x2="48.1545" y2="-7.13058" gradientUnits="userSpaceOnUse">
<stop stop-color="#E20649"/>
<stop offset="0.54" stop-color="#F3316C"/>
<stop offset="1" stop-color="#FF8C8B"/>
</linearGradient>
<linearGradient id="paint2_linear_228_1828" x1="40.8732" y1="103.125" x2="-1.36412" y2="95.8751" gradientUnits="userSpaceOnUse">
<stop stop-color="#FFD8D6"/>
<stop offset="0.57" stop-color="white"/>
<stop offset="1" stop-color="white"/>
</linearGradient>
<linearGradient id="paint3_linear_228_1828" x1="39.4095" y1="20.2619" x2="18.6961" y2="-0.449827" gradientUnits="userSpaceOnUse">
<stop stop-color="#FFD8D6"/>
<stop offset="0.57" stop-color="white"/>
<stop offset="1" stop-color="white"/>
</linearGradient>
</defs>
</svg>
