<svg width="60" height="60" viewBox="0 0 60 60" fill="none" xmlns="http://www.w3.org/2000/svg">
<g id="marketing icon">
<g id="Layer 16">
<path id="Vector" d="M46.9214 26.1874C46.9214 15.8216 43.3198 6.53324 38.8364 5.85534C38.1176 5.77337 37.3917 5.92878 36.7695 6.29788C30.9684 8.94981 25.1507 12.3095 19.3397 15.7553C17.1809 17.0427 14.7354 17.7718 12.2242 17.8769C11.2507 17.9156 10.28 17.9592 9.31205 18.0078C5.0673 18.2664 1.65625 21.9973 1.65625 26.1874C1.65625 30.3725 5.0673 34.1017 9.31205 34.3669C10.2811 34.4167 11.2518 34.4609 12.2242 34.4995C14.7354 34.6046 17.1809 35.3338 19.3397 36.6211C25.1507 40.0669 30.9767 43.4167 36.7695 46.0785C37.3925 46.4456 38.118 46.5998 38.8364 46.5178C43.3198 45.8399 46.9214 36.5531 46.9214 26.1874ZM34.6894 26.1874C34.6894 21.6824 35.3093 17.3846 36.433 14.1741C37.4159 11.3564 38.4518 10.362 38.8364 10.1432C39.2209 10.4399 40.2551 11.6448 41.2347 14.5139C42.3535 17.7973 42.9701 21.9045 42.9701 26.1874C42.9701 30.4686 42.3535 34.5774 41.2347 37.8592C40.2551 40.7299 39.2209 41.9332 38.8364 42.2316C38.4518 42.0045 37.4159 41.01 36.433 38.199C35.3027 34.9835 34.6894 30.6874 34.6894 26.1874Z" fill="url(#paint0_linear_228_1849)"/>
<path id="Vector_2" d="M34.6914 26.1868C34.6914 21.6818 35.3113 17.384 36.4351 14.1735C37.4179 11.3558 38.4538 10.3614 38.8384 10.1426C39.2229 10.4393 40.2572 11.6442 41.2367 14.5133C42.3555 17.7967 42.9721 21.9039 42.9721 26.1868C42.9721 30.468 42.3555 34.5768 41.2367 37.8586C40.2572 40.7293 39.2229 41.9326 38.8384 42.231C38.4538 42.0039 37.4179 41.0094 36.4351 38.1984C35.3047 34.9829 34.6914 30.6868 34.6914 26.1868Z" fill="url(#paint1_linear_228_1849)"/>
<path id="Vector_3" d="M41.8944 26.1874C41.8944 25.6396 41.7865 25.0971 41.5768 24.591C41.3672 24.0848 41.0599 23.6249 40.6725 23.2375C40.2851 22.8501 39.8252 22.5428 39.3191 22.3332C38.8129 22.1235 38.2704 22.0156 37.7226 22.0156H36.9287C36.7302 22.0157 36.5389 22.0901 36.3926 22.2242C36.2463 22.3582 36.1554 22.5422 36.138 22.7399C36.0419 23.8604 35.9922 25.014 35.9922 26.1874C35.9922 27.3609 36.0419 28.5079 36.138 29.635C36.1554 29.8322 36.2461 30.0158 36.3921 30.1496C36.5381 30.2833 36.729 30.3576 36.927 30.3576H37.7226C38.2703 30.3578 38.8128 30.2501 39.3189 30.0407C39.8251 29.8312 40.285 29.524 40.6724 29.1368C41.0598 28.7495 41.3671 28.2897 41.5768 27.7837C41.7865 27.2776 41.8944 26.7352 41.8944 26.1874Z" fill="url(#paint2_linear_228_1849)"/>
<path id="Vector_4" d="M50.0521 18.8568C49.5701 18.8578 49.1026 18.6919 48.729 18.3874C48.3555 18.0828 48.0989 17.6583 48.0028 17.186C47.9067 16.7137 47.9771 16.2226 48.202 15.7963C48.427 15.3701 48.7925 15.0348 49.2366 14.8474L53.7117 12.9546C53.9641 12.8476 54.2351 12.7914 54.5092 12.7891C54.7833 12.7869 55.0552 12.8386 55.3093 12.9414C55.5634 13.0443 55.7947 13.1961 55.9902 13.3883C56.1856 13.5806 56.3412 13.8094 56.4482 14.0618C56.5552 14.3142 56.6114 14.5851 56.6137 14.8592C56.6159 15.1333 56.5642 15.4052 56.4613 15.6593C56.3585 15.9134 56.2067 16.1448 56.0144 16.3402C55.8222 16.5356 55.5934 16.6913 55.341 16.7982L50.8659 18.6911C50.6085 18.8004 50.3317 18.8567 50.0521 18.8568Z" fill="url(#paint3_linear_228_1849)"/>
<path id="Vector_5" d="M55.9234 28.0978H51.3621C51.083 28.1057 50.8051 28.0575 50.545 27.9562C50.2848 27.8548 50.0477 27.7023 49.8475 27.5076C49.6473 27.313 49.4882 27.0802 49.3795 26.823C49.2708 26.5658 49.2148 26.2895 49.2148 26.0103C49.2148 25.7311 49.2708 25.4547 49.3795 25.1975C49.4882 24.9403 49.6473 24.7075 49.8475 24.5129C50.0477 24.3183 50.2848 24.1658 50.545 24.0644C50.8051 23.963 51.083 23.9148 51.3621 23.9227H55.9234C56.4669 23.938 56.983 24.1647 57.3619 24.5545C57.7409 24.9443 57.953 25.4666 57.953 26.0103C57.953 26.554 57.7409 27.0762 57.3619 27.466C56.983 27.8559 56.4669 28.0825 55.9234 28.0978Z" fill="url(#paint4_linear_228_1849)"/>
<path id="Vector_6" d="M54.5304 39.2354C54.2508 39.2353 53.974 39.179 53.7166 39.0697L49.2415 37.1752C48.7318 36.9591 48.3288 36.5495 48.1211 36.0363C47.9135 35.5231 47.9182 34.9484 48.1343 34.4387C48.3503 33.929 48.76 33.526 49.2732 33.3184C49.7864 33.1108 50.361 33.1155 50.8707 33.3315L55.3459 35.2244C55.7893 35.4124 56.1541 35.748 56.3785 36.1742C56.6029 36.6004 56.673 37.0911 56.5771 37.5631C56.4811 38.0351 56.2249 38.4594 55.8519 38.7642C55.4789 39.069 55.0121 39.2354 54.5304 39.2354Z" fill="url(#paint5_linear_228_1849)"/>
<path id="Vector_7" d="M17.9924 38.1217V35.9057C16.1817 35.0578 14.2205 34.5783 12.2228 34.4952C11.3731 34.461 10.525 34.4228 9.67859 34.3809V36.3599C9.62862 41.2998 10.2458 46.2238 11.5134 50.9985C12.2195 53.6621 14.7521 55.0941 16.8885 54.2753C19.025 53.4565 20.1123 51.0615 19.5405 48.8687C18.6072 45.359 18.0877 41.7522 17.9924 38.1217Z" fill="url(#paint6_linear_228_1849)"/>
<path id="Vector_8" d="M19.3382 15.7459C18.0572 16.5065 16.6718 17.0755 15.2261 17.4349C14.278 19.9211 13.7344 22.9426 13.7344 26.1796C13.7344 27.0365 14.3742 27.7376 15.1648 27.7426C15.9554 27.7476 16.5968 27.0481 16.5968 26.1796C16.5968 21.1758 17.9775 17.478 19.4974 15.6465L19.3382 15.7459Z" fill="url(#paint7_linear_228_1849)"/>
</g>
</g>
<defs>
<linearGradient id="paint0_linear_228_1849" x1="39.9031" y1="40.2256" x2="11.983" y2="9.17511" gradientUnits="userSpaceOnUse">
<stop stop-color="#FF5953"/>
<stop offset="0.54" stop-color="#FF807B"/>
<stop offset="1" stop-color="#FF9D99"/>
</linearGradient>
<linearGradient id="paint1_linear_228_1849" x1="40.9981" y1="95.0021" x2="32.3461" y2="94.7234" gradientUnits="userSpaceOnUse">
<stop stop-color="#FFD8D6"/>
<stop offset="0.57" stop-color="white"/>
<stop offset="1" stop-color="white"/>
</linearGradient>
<linearGradient id="paint2_linear_228_1849" x1="41.3939" y1="29.0712" x2="35.9949" y2="24.6182" gradientUnits="userSpaceOnUse">
<stop stop-color="#E20649"/>
<stop offset="0.54" stop-color="#F3316C"/>
<stop offset="1" stop-color="#FF8C8B"/>
</linearGradient>
<linearGradient id="paint3_linear_228_1849" x1="55.88" y1="17.9211" x2="52.3461" y2="12.0466" gradientUnits="userSpaceOnUse">
<stop stop-color="#E20649"/>
<stop offset="0.54" stop-color="#F3316C"/>
<stop offset="1" stop-color="#FF8C8B"/>
</linearGradient>
<linearGradient id="paint4_linear_228_1849" x1="57.212" y1="27.4546" x2="55.2788" y2="22.7401" gradientUnits="userSpaceOnUse">
<stop stop-color="#E20649"/>
<stop offset="0.54" stop-color="#F3316C"/>
<stop offset="1" stop-color="#FF8C8B"/>
</linearGradient>
<linearGradient id="paint5_linear_228_1849" x1="55.8854" y1="38.2994" x2="52.3496" y2="32.4251" gradientUnits="userSpaceOnUse">
<stop stop-color="#E20649"/>
<stop offset="0.54" stop-color="#F3316C"/>
<stop offset="1" stop-color="#FF8C8B"/>
</linearGradient>
<linearGradient id="paint6_linear_228_1849" x1="18.8422" y1="51.4018" x2="7.32473" y2="44.7197" gradientUnits="userSpaceOnUse">
<stop stop-color="#E20649"/>
<stop offset="0.54" stop-color="#F3316C"/>
<stop offset="1" stop-color="#FF8C8B"/>
</linearGradient>
<linearGradient id="paint7_linear_228_1849" x1="19.0087" y1="25.8773" x2="12.239" y2="22.1175" gradientUnits="userSpaceOnUse">
<stop stop-color="#E20649"/>
<stop offset="0.54" stop-color="#F3316C"/>
<stop offset="1" stop-color="#FF8C8B"/>
</linearGradient>
</defs>
</svg>
