<svg width="60" height="60" viewBox="0 0 60 60" fill="none" xmlns="http://www.w3.org/2000/svg">
<g id="professional icon">
<g id="Layer 16">
<path id="Vector" d="M12.4402 57.1819C10.3452 57.2341 6.22952 56.9089 4.88457 56.5886C3.93899 56.3725 3.08806 55.8578 2.45761 55.1207C1.81603 54.3968 1.41293 53.4929 1.30311 52.5319V52.5032C1.23293 51.8107 1.21097 51.114 1.23738 50.4184C1.21104 49.8412 1.23302 49.2628 1.30311 48.6892V48.6606C1.40058 47.746 1.80936 46.8928 2.46098 46.2437C3.11471 45.5898 3.97088 45.1768 4.88963 45.0723C6.23794 44.9291 10.3452 44.8516 12.4318 44.8516C14.5183 44.8516 17.8672 44.9291 19.2172 45.0723C20.1394 45.1774 20.9984 45.5935 21.6526 46.2521C22.3048 46.9007 22.7138 47.7542 22.8104 48.669V48.6976C22.8773 49.2705 22.9111 49.8467 22.9115 50.4235C22.9146 51.1214 22.8808 51.819 22.8104 52.5134V52.5403C22.7012 53.5012 22.2987 54.4051 21.6576 55.1291C21.0263 55.8664 20.175 56.3816 19.229 56.5988C17.8891 56.8971 14.5335 57.1971 12.4402 57.1819Z" fill="url(#paint0_linear_228_1863)"/>
<path id="Vector_2" d="M12.0733 43.2842C15.6755 43.2842 18.5957 40.364 18.5957 36.7617C18.5957 33.1595 15.6755 30.2393 12.0733 30.2393C8.47099 30.2393 5.55078 33.1595 5.55078 36.7617C5.55078 40.364 8.47099 43.2842 12.0733 43.2842Z" fill="url(#paint1_linear_228_1863)"/>
<path id="Vector_3" d="M48.2996 57.1819C46.2046 57.2341 42.0889 56.9089 40.7439 56.5886C39.7984 56.3725 38.9474 55.8578 38.317 55.1207C37.6754 54.3968 37.2723 53.4929 37.1625 52.5319V52.5032C37.0923 51.8107 37.0703 51.114 37.0968 50.4184C37.0704 49.8412 37.0924 49.2628 37.1625 48.6892V48.6606C37.26 47.746 37.6687 46.8928 38.3203 46.2437C38.9761 45.5887 39.8347 45.1757 40.7557 45.0723C42.1041 44.9291 46.2114 44.8516 48.2979 44.8516C50.3844 44.8516 53.7333 44.9291 55.0833 45.0723C56.0056 45.1771 56.8647 45.5933 57.5187 46.2521C58.171 46.9007 58.5799 47.7542 58.6765 48.669V48.6976C58.7435 49.2705 58.7772 49.8467 58.7777 50.4235C58.7807 51.1214 58.747 51.819 58.6765 52.5134V52.5403C58.5673 53.5012 58.1648 54.4051 57.5237 55.1291C56.8924 55.8664 56.0411 56.3816 55.0951 56.5988C53.7484 56.8971 50.3945 57.1971 48.2996 57.1819Z" fill="url(#paint2_linear_228_1863)"/>
<path id="Vector_4" d="M47.9326 43.2842C51.5349 43.2842 54.4551 40.364 54.4551 36.7617C54.4551 33.1595 51.5349 30.2393 47.9326 30.2393C44.3304 30.2393 41.4102 33.1595 41.4102 36.7617C41.4102 40.364 44.3304 43.2842 47.9326 43.2842Z" fill="url(#paint3_linear_228_1863)"/>
<path id="Vector_5" d="M30.3908 58.7752C28.1728 58.8308 23.8177 58.4853 22.3902 58.1466C21.3883 57.9171 20.4867 57.3717 19.8183 56.591C19.1392 55.824 18.7126 54.8666 18.5964 53.8488V53.8185C18.5221 53.085 18.499 52.3473 18.5273 51.6106C18.4991 50.9996 18.5222 50.3874 18.5964 49.7803V49.7499C18.7003 48.7818 19.1334 47.8786 19.8233 47.1915C20.5174 46.4973 21.4266 46.0594 22.402 45.9494C23.8312 45.7994 28.1795 45.7168 30.3891 45.7168C32.5986 45.7168 36.1464 45.7994 37.5756 45.9511C38.5516 46.0592 39.4613 46.4975 40.1542 47.1932C40.8453 47.8804 41.2791 48.7843 41.3829 49.7533V49.7837C41.4547 50.39 41.4907 51 41.4908 51.6106C41.4935 52.3496 41.4575 53.0883 41.3829 53.8235V53.8539C41.2654 54.8716 40.8383 55.8288 40.1593 56.596C39.4895 57.375 38.5874 57.9184 37.5857 58.1466C36.1632 58.4719 32.6087 58.7904 30.3908 58.7752Z" fill="url(#paint4_linear_228_1863)"/>
<path id="Vector_6" d="M30.0022 44.0542C33.8176 44.0542 36.9106 40.9611 36.9106 37.1457C36.9106 33.3303 33.8176 30.2373 30.0022 30.2373C26.1868 30.2373 23.0938 33.3303 23.0938 37.1457C23.0938 40.9611 26.1868 44.0542 30.0022 44.0542Z" fill="url(#paint5_linear_228_1863)"/>
<path id="Vector_7" d="M11.9549 28.9879C11.876 28.9876 11.7973 28.9831 11.7189 28.9745C11.4398 28.9438 11.1695 28.8585 10.9235 28.7233C10.6774 28.5881 10.4604 28.4057 10.2849 28.1865C10.1094 27.9673 9.97889 27.7157 9.90075 27.4461C9.82262 27.1764 9.79844 26.8939 9.82959 26.6149C10.3352 21.9683 13.5644 17.8829 18.0442 16.2093C18.3069 16.1111 18.5864 16.0657 18.8667 16.0755C19.147 16.0854 19.4226 16.1503 19.6777 16.2667C19.9329 16.3831 20.1627 16.5485 20.3539 16.7537C20.5451 16.9589 20.6941 17.1997 20.7922 17.4624C20.8904 17.7251 20.9358 18.0046 20.926 18.2849C20.9161 18.5651 20.8512 18.8407 20.7348 19.0959C20.6185 19.3511 20.453 19.5809 20.2478 19.7721C20.0427 19.9633 19.8019 20.1123 19.5391 20.2104C16.556 21.3262 14.4122 24.0228 14.0751 27.0818C14.0186 27.6049 13.771 28.0888 13.3797 28.4405C12.9884 28.7923 12.481 28.9873 11.9549 28.9879Z" fill="url(#paint6_linear_228_1863)"/>
<path id="Vector_8" d="M48.0513 28.9884C47.5256 28.9878 47.0187 28.7933 46.6275 28.4422C46.2363 28.0912 45.9883 27.6081 45.9311 27.0856C45.594 24.0266 43.4502 21.33 40.467 20.2143C39.9358 20.0153 39.5053 19.6135 39.2703 19.0972C39.0353 18.5809 39.015 17.9924 39.2139 17.4612C39.4128 16.9299 39.8146 16.4994 40.331 16.2644C40.8473 16.0294 41.4358 16.0092 41.967 16.2081C46.4468 17.8817 49.6726 21.9671 50.1816 26.6137C50.2128 26.8927 50.1886 27.1752 50.1105 27.4448C50.0323 27.7145 49.9018 27.9661 49.7263 28.1853C49.5508 28.4044 49.3338 28.5868 49.0878 28.7221C48.8417 28.8573 48.5714 28.9426 48.2923 28.9732C48.2123 28.9826 48.1318 28.9877 48.0513 28.9884Z" fill="url(#paint7_linear_228_1863)"/>
<path id="Vector_9" d="M34.3828 21.3029C34.3493 21.9027 34.0883 22.4672 33.653 22.8812C33.2177 23.2952 32.6408 23.5276 32.0401 23.531H31.9491C31.9085 24.0171 31.6867 24.4703 31.3277 24.8005C30.9687 25.1308 30.4987 25.3141 30.0109 25.3141C29.523 25.3141 29.053 25.1308 28.694 24.8005C28.335 24.4703 28.1132 24.0171 28.0727 23.531H27.9783C27.3775 23.5276 26.8007 23.2952 26.3654 22.8812C25.93 22.4672 25.669 21.9027 25.6356 21.3029L25.6103 19.6175C25.6079 19.3509 25.5893 19.0847 25.5547 18.8203H34.462C34.4262 19.0846 34.4077 19.3508 34.4064 19.6175L34.3828 21.3029Z" fill="url(#paint8_linear_228_1863)"/>
<path id="Vector_10" d="M39.1042 9.80202C38.8716 5.04753 34.5368 1.21663 30.003 1.22168C25.4693 1.22674 21.1514 5.03742 20.9188 9.80202C20.8244 12.4515 22.1542 14.8228 24.1834 16.3987C24.5613 16.6909 24.8773 17.0554 25.1131 17.4709C25.3489 17.8864 25.4998 18.3446 25.557 18.8189H34.4643C34.5254 18.3399 34.6806 17.8777 34.921 17.4588C35.1613 17.04 35.4821 16.6728 35.8648 16.3784C37.8722 14.8026 39.1884 12.4397 39.1042 9.80202Z" fill="url(#paint9_linear_228_1863)"/>
<path id="Vector_11" d="M35.734 8.54867C35.5953 8.60946 35.4456 8.64101 35.2941 8.64136C35.0845 8.64158 34.8794 8.58082 34.7038 8.46651C34.5281 8.3522 34.3895 8.18925 34.3048 7.99754C33.8144 6.92985 32.9258 6.09632 31.829 5.67507C31.5665 5.56902 31.3561 5.36435 31.2428 5.10496C31.1295 4.84557 31.1224 4.55211 31.2229 4.28751C31.3235 4.02292 31.5237 3.80826 31.7807 3.68957C32.0376 3.57088 32.3309 3.5576 32.5975 3.6526C34.2367 4.27557 35.5621 5.52283 36.2835 7.12114C36.3993 7.38337 36.4066 7.68083 36.3036 7.94838C36.2006 8.21594 35.9958 8.43178 35.734 8.54867Z" fill="#DFF8FF"/>
</g>
</g>
<defs>
<linearGradient id="paint0_linear_228_1863" x1="19.5495" y1="55.2741" x2="12.2356" y2="42.416" gradientUnits="userSpaceOnUse">
<stop stop-color="#FF5953"/>
<stop offset="0.54" stop-color="#FF807B"/>
<stop offset="1" stop-color="#FF9D99"/>
</linearGradient>
<linearGradient id="paint1_linear_228_1863" x1="17.4895" y1="41.2725" x2="8.98978" y2="31.3642" gradientUnits="userSpaceOnUse">
<stop stop-color="#E20649"/>
<stop offset="0.54" stop-color="#F3316C"/>
<stop offset="1" stop-color="#FF8C8B"/>
</linearGradient>
<linearGradient id="paint2_linear_228_1863" x1="55.4145" y1="55.2741" x2="48.1018" y2="42.4141" gradientUnits="userSpaceOnUse">
<stop stop-color="#FF5953"/>
<stop offset="0.54" stop-color="#FF807B"/>
<stop offset="1" stop-color="#FF9D99"/>
</linearGradient>
<linearGradient id="paint3_linear_228_1863" x1="53.3489" y1="41.2725" x2="44.8492" y2="31.3642" gradientUnits="userSpaceOnUse">
<stop stop-color="#E20649"/>
<stop offset="0.54" stop-color="#F3316C"/>
<stop offset="1" stop-color="#FF8C8B"/>
</linearGradient>
<linearGradient id="paint4_linear_228_1863" x1="37.9286" y1="56.7548" x2="30.1845" y2="43.1347" gradientUnits="userSpaceOnUse">
<stop stop-color="#FF5953"/>
<stop offset="0.54" stop-color="#FF807B"/>
<stop offset="1" stop-color="#FF9D99"/>
</linearGradient>
<linearGradient id="paint5_linear_228_1863" x1="35.7389" y1="41.9234" x2="26.7362" y2="31.4288" gradientUnits="userSpaceOnUse">
<stop stop-color="#E20649"/>
<stop offset="0.54" stop-color="#F3316C"/>
<stop offset="1" stop-color="#FF8C8B"/>
</linearGradient>
<linearGradient id="paint6_linear_228_1863" x1="19.2046" y1="26.9849" x2="10.3965" y2="19.4059" gradientUnits="userSpaceOnUse">
<stop stop-color="#FF5953"/>
<stop offset="0.54" stop-color="#FF807B"/>
<stop offset="1" stop-color="#FF9D99"/>
</linearGradient>
<linearGradient id="paint7_linear_228_1863" x1="48.4712" y1="26.985" x2="39.661" y2="19.4017" gradientUnits="userSpaceOnUse">
<stop stop-color="#FF5953"/>
<stop offset="0.54" stop-color="#FF807B"/>
<stop offset="1" stop-color="#FF9D99"/>
</linearGradient>
<linearGradient id="paint8_linear_228_1863" x1="33.0809" y1="24.3069" x2="28.8164" y2="18.457" gradientUnits="userSpaceOnUse">
<stop stop-color="#FF5953"/>
<stop offset="0.54" stop-color="#FF807B"/>
<stop offset="1" stop-color="#FF9D99"/>
</linearGradient>
<linearGradient id="paint9_linear_228_1863" x1="37.5651" y1="16.1052" x2="26.1635" y2="2.36327" gradientUnits="userSpaceOnUse">
<stop stop-color="#E20649"/>
<stop offset="0.54" stop-color="#F3316C"/>
<stop offset="1" stop-color="#FF8C8B"/>
</linearGradient>
</defs>
</svg>
