<svg width="48" height="48" viewBox="0 0 48 48" fill="none" xmlns="http://www.w3.org/2000/svg">
<g filter="url(#filter0_dd_345_3226)">
<path fill-rule="evenodd" clip-rule="evenodd" d="M24 40C35.0457 40 44 31.0457 44 20C44 8.9543 35.0457 0 24 0C12.9543 0 4 8.9543 4 20C4 31.0457 12.9543 40 24 40Z" fill="#30303A"/>
<path d="M21.73 28H25.0532V19.9325H27.3734L27.6216 17.2319H25.0532C25.0532 17.2319 25.0532 16.2228 25.0532 15.6925C25.0532 15.0566 25.1849 14.8037 25.8207 14.8037C26.3323 14.8037 27.619 14.8037 27.619 14.8037V12C27.619 12 25.7219 12 25.3166 12C22.8445 12 21.73 13.0557 21.73 15.0763C21.73 16.8366 21.73 17.2294 21.73 17.2294H20V19.9644H21.73V28Z" fill="white"/>
</g>
<defs>
<filter id="filter0_dd_345_3226" x="0" y="0" width="48" height="48" filterUnits="userSpaceOnUse" color-interpolation-filters="sRGB">
<feFlood flood-opacity="0" result="BackgroundImageFix"/>
<feColorMatrix in="SourceAlpha" type="matrix" values="0 0 0 0 0 0 0 0 0 0 0 0 0 0 0 0 0 0 127 0" result="hardAlpha"/>
<feOffset dy="4"/>
<feGaussianBlur stdDeviation="2"/>
<feComposite in2="hardAlpha" operator="out"/>
<feColorMatrix type="matrix" values="0 0 0 0 0 0 0 0 0 0 0 0 0 0 0 0 0 0 0.25 0"/>
<feBlend mode="normal" in2="BackgroundImageFix" result="effect1_dropShadow_345_3226"/>
<feColorMatrix in="SourceAlpha" type="matrix" values="0 0 0 0 0 0 0 0 0 0 0 0 0 0 0 0 0 0 127 0" result="hardAlpha"/>
<feOffset dy="4"/>
<feGaussianBlur stdDeviation="2"/>
<feComposite in2="hardAlpha" operator="out"/>
<feColorMatrix type="matrix" values="0 0 0 0 0 0 0 0 0 0 0 0 0 0 0 0 0 0 0.25 0"/>
<feBlend mode="normal" in2="effect1_dropShadow_345_3226" result="effect2_dropShadow_345_3226"/>
<feBlend mode="normal" in="SourceGraphic" in2="effect2_dropShadow_345_3226" result="shape"/>
</filter>
</defs>
</svg>
